<svg xmlns="http://www.w3.org/2000/svg" xmlns:xlink="http://www.w3.org/1999/xlink" viewBox="0 0 360 450" version="1.1" x="0px" y="0px"><g stroke="none" stroke-width="1" fill-rule="evenodd"><path d="M90,124 C90,105.55668 90,88.4090906 94.5977264,74.1349216 C99.1954528,59.8607526 108.390906,48.4600041 126.781811,41.5103666 C140.015893,27.2002978 147.92443,22.1568466 156.5,20.1150443 C163.5,18.4483776 164.833333,21.7817109 160.5,30.1150443 C175.5,20.1150443 187.166667,16.2817109 195.5,18.6150443 C203.833333,20.9483776 203.833333,23.7817109 195.5,27.1150443 C211.833333,23.4483776 222.5,23.4483776 227.5,27.1150443 C229.51535,28.5929674 231.700117,34.2242532 231.322728,40.8213636 C270,54.3401293 270,86.4903219 270,124 C270,125.43302 269.966508,126.858218 269.900265,128.274854 C269.834021,129.691489 269.735026,131.099563 269.604019,132.498333 C269.842551,135.117606 269.971363,137.628574 270,140 C270,140.21329 269.999739,140.426339 269.999214,140.639165 C269.999739,140.759822 270,140.880101 270,141 C269.807602,190.178515 255.423813,226.514263 195.113466,251.347999 C206.038056,290.569443 269.203406,292.548793 284.611198,317.799633 C282.762114,319.205542 280.883874,320.575084 278.977543,321.907193 C278.819497,322.017633 278.661258,322.127815 278.502826,322.23774 C274.794474,315.555136 265.578363,309.908996 248.033741,302.251813 C247.183023,301.880525 239.676234,298.634348 237.429434,297.645172 C223.835962,291.66051 214.644283,286.776328 207.081725,280.82299 L179.702527,296.767729 L152.713118,280.592676 C145.108358,286.642302 135.82714,291.588703 122.070566,297.645172 C119.823766,298.634348 112.316977,301.880525 111.466259,302.251813 C94.1404342,309.813504 84.9366879,315.413999 81.1384885,321.988203 C81.0998,321.961215 81.061123,321.934212 81.0224576,321.907193 C79.1161182,320.575078 77.23787,319.20553 75.3887782,317.799615 C90.7965943,292.548793 153.961944,290.569443 164.886534,251.347999 C104.576198,226.514263 90.1925393,190.178515 90.0019296,141.000001 C90,140.880101 90.0002615,140.759822 90.0007857,140.639165 C90.0002611,140.426339 90,140.21329 90,140 C90.0286374,137.628574 90.1574493,135.117606 90.3959808,132.498333 C90.1339671,129.700792 90,126.866041 90,124 Z M262.856339,136 C261.835108,118.385181 255.634263,98.636248 244.918976,83.3350176 C230.479108,62.7151552 209.048263,51 180,51 C150.951737,51 129.520892,62.7151552 115.081024,83.3350176 C104.352005,98.6558584 98.1490054,118.435809 97.1401689,136 L111,136 C111.098605,136 111.195876,136.005709 111.291502,136.016813 C114.6399,128.991519 122.380438,125 139,125 C155.619562,125 163.3601,128.991519 166.708498,136.016813 C166.804124,136.005709 166.901395,136 167,136 L193,136 C193.098605,136 193.195876,136.005709 193.291502,136.016813 C196.6399,128.991519 204.380438,125 221,125 C237.619562,125 245.3601,128.991519 248.708498,136.016813 C248.804124,136.005709 248.901395,136 249,136 L262.856339,136 Z M97.0019837,141 C97.1129396,168.828773 101.957284,189.023335 113.431217,205.591997 C126.035742,223.793262 147.251314,238.150333 180,249.595849 C212.748686,238.150333 233.964258,223.793262 246.568783,205.591997 C258.042716,189.023335 262.88706,168.828773 262.998016,141 L250.31188,141 C250.811768,143.503927 251,146.265397 251,149.258065 C251,164.312278 240.958663,173.918521 221,173.516129 C201.041337,173.113737 191,164.312278 191,149.258065 C191,146.265397 191.188232,143.503927 191.68812,141 L168.31188,141 C168.811768,143.503927 169,146.265397 169,149.258065 C169,164.312278 158.958663,173.113737 139,173.516129 C119.041337,173.918521 109,164.312278 109,149.258065 C109,146.265397 109.188232,143.503927 109.68812,141 L97.0019837,141 Z M202.01039,275.675848 C195.652529,269.489082 191.155835,262.451661 188.692732,254.352621 C186.590857,255.124175 184.444608,255.882371 182.253319,256.627409 L180,257.393538 L177.746681,256.627409 C175.555392,255.882371 173.409143,255.124175 171.307268,254.352621 C168.85088,262.429579 164.371976,269.450699 158.041573,275.625225 L179.753585,288.637476 L202.01039,275.675848 Z M180,360 C80.588745,360 0,279.411255 0,180 C0,80.588745 80.588745,0 180,0 C279.411255,0 360,80.588745 360,180 C360,279.411255 279.411255,360 180,360 Z M180,353 C275.545262,353 353,275.545262 353,180 C353,84.4547383 275.545262,7 180,7 C84.4547383,7 7,84.4547383 7,180 C7,275.545262 84.4547383,353 180,353 Z M153.733113,208.262667 C151.931192,207.562985 151.03765,205.535035 151.737333,203.733113 C152.437015,201.931192 154.464965,201.03765 156.266887,201.737333 C164.457453,204.917712 172.477267,206.5 180.342466,206.5 C188.190794,206.5 195.959688,204.924641 203.671952,201.761746 C205.46039,201.028285 207.504793,201.883514 208.238254,203.671952 C208.971715,205.46039 208.116486,207.504793 206.328048,208.238254 C197.784605,211.742026 189.115143,213.5 180.342466,213.5 C171.586659,213.5 162.711496,211.748954 153.733113,208.262667 Z M141,153 C137.134007,153 134,152.418278 134,148 C134,143.581722 137.134007,140 141,140 C144.865993,140 148,143.581722 148,148 C148,152.418278 144.865993,153 141,153 Z M219,153 C215.134007,153 212,152.418278 212,148 C212,143.581722 215.134007,140 219,140 C222.865993,140 226,143.581722 226,148 C226,152.418278 222.865993,153 219,153 Z M138.899214,168.517145 C156.022873,168.17191 164,161.585716 164,149.258065 C164,142.036014 162.80048,137.785182 159.996349,135.086013 C156.590512,131.80766 150.013172,130 139,130 C127.986828,130 121.409488,131.80766 118.003651,135.086013 C115.19952,137.785182 114,142.036014 114,149.258065 C114,161.890446 122.232753,168.853162 138.899214,168.517145 Z M221.100786,168.517145 C237.767247,168.853162 246,161.890446 246,149.258065 C246,142.036014 244.80048,137.785182 241.996349,135.086013 C238.590512,131.80766 232.013172,130 221,130 C209.986828,130 203.409488,131.80766 200.003651,135.086013 C197.19952,137.785182 196,142.036014 196,149.258065 C196,161.585716 203.977127,168.17191 221.100786,168.517145 Z" /></g></svg>