<svg xmlns="http://www.w3.org/2000/svg" xmlns:xlink="http://www.w3.org/1999/xlink" version="1.1" x="0px" y="0px" viewBox="0 0 64 80" enable-background="new 0 0 64 64" xml:space="preserve"><g><path d="M54,62H10c-0.552,0-1-0.447-1-1V3c0-0.553,0.448-1,1-1h44c0.552,0,1,0.447,1,1v58C55,61.553,54.552,62,54,62z M11,60h42V4   H11V60z"/><path d="M21,17c-2.757,0-5-2.243-5-5s2.243-5,5-5s5,2.243,5,5S23.757,17,21,17z M21,9c-1.654,0-3,1.346-3,3s1.346,3,3,3   s3-1.346,3-3S22.654,9,21,9z"/><path d="M28,26h-2c0-2.757-2.243-5-5-5s-5,2.243-5,5h-2c0-3.859,3.14-7,7-7S28,22.141,28,26z"/><path d="M49,18H31c-0.552,0-1-0.447-1-1V9c0-0.553,0.448-1,1-1h18c0.552,0,1,0.447,1,1v8C50,17.553,49.552,18,49,18z M32,16h16v-6   H32V16z"/><path d="M33,57H15c-0.552,0-1-0.447-1-1v-6c0-0.553,0.448-1,1-1h18c0.552,0,1,0.447,1,1v6C34,56.553,33.552,57,33,57z M16,55h16v-4   H16V55z"/><rect x="30" y="20" width="20" height="2"/><rect x="30" y="24" width="20" height="2"/><rect x="36" y="50" width="14" height="2"/><rect x="36" y="54" width="14" height="2"/><rect x="14" y="29" width="36" height="2"/><rect x="14" y="33" width="36" height="2"/><rect x="14" y="37" width="36" height="2"/><rect x="14" y="41" width="36" height="2"/><rect x="14" y="45" width="36" height="2"/></g></svg>