<svg xmlns="http://www.w3.org/2000/svg" xmlns:xlink="http://www.w3.org/1999/xlink" version="1.1" x="0px" y="0px" viewBox="0 0 100 125" style="enable-background:new 0 0 100 100;" xml:space="preserve"><path d="M13,21.5c1.4,0,2.5-1.1,2.5-2.5s-1.1-2.5-2.5-2.5s-2.5,1.1-2.5,2.5S11.6,21.5,13,21.5z"/><path d="M20.5,21.5c1.4,0,2.5-1.1,2.5-2.5s-1.1-2.5-2.5-2.5S18,17.6,18,19S19.1,21.5,20.5,21.5z"/><path d="M28,21.5c1.4,0,2.5-1.1,2.5-2.5s-1.1-2.5-2.5-2.5s-2.5,1.1-2.5,2.5S26.6,21.5,28,21.5z"/><path d="M90,10H10c-2.8,0-5,2.3-5,5v70c0,2.8,2.3,5,5,5h80c2.8,0,5-2.3,5-5V15C95,12.3,92.7,10,90,10z M10,13h80c1.1,0,2,0.9,2,2v10  H8V15C8,13.9,8.9,13,10,13z M90,87H10c-1.1,0-2-0.9-2-2V28h84v57C92,86.1,91.1,87,90,87z"/><path d="M71.9,42.7H58.6v-4.5c0-0.8-0.7-1.5-1.5-1.5H42.9c-0.8,0-1.5,0.7-1.5,1.5v4.5H28.1c-0.8,0-1.5,0.7-1.5,1.5v32.5  c0,0.8,0.7,1.5,1.5,1.5h43.8c0.8,0,1.5-0.7,1.5-1.5V44.2C73.4,43.4,72.7,42.7,71.9,42.7z M44.4,39.8h11.2v3H44.4V39.8z M29.6,45.7  h13.3h14.2h13.3v8c0,0.1-0.5,8.5-20.4,8.5c-19.8,0-20.4-8.3-20.4-8.5V45.7z M70.4,75.2H29.6V59.7c3,2.8,8.8,5.6,20.4,5.6  c11.6,0,17.5-2.8,20.4-5.6V75.2z"/><path d="M46.1,58.8h7.8c0.8,0,1.5-0.7,1.5-1.5s-0.7-1.5-1.5-1.5h-7.8c-0.8,0-1.5,0.7-1.5,1.5S45.3,58.8,46.1,58.8z"/></svg>